<svg xmlns="http://www.w3.org/2000/svg" height="67" version="1.1" viewBox="0 0 67 67" width="67" xml:space="preserve"><path d="M20.5 34.6c-0.1 0 0.6 1.4 0.6 1.4 1.4 2.5 4.1 4.1 8.7 4.5 -0.7 0.5-1.4 1.4-1.5 2.5 -0.8 0.5-2.5 0.7-3.8 0.3 -1.8-0.6-2.5-4.1-5.2-3.6 -0.6 0.1-0.5 0.5 0 0.8 0.8 0.5 1.6 1.2 2.2 2.6 0.5 1.1 1.4 3 4.5 3 1.2 0 2.1-0.1 2.1-0.1s0 2.7 0 3.8c0 1.2-1.7 1.6-1.7 2.2 0 0.2 0.6 0.3 1 0.3 0.9 0 2.7-0.7 2.7-2 0-1 0-4.4 0-5 0-1.3 0.7-1.7 0.7-1.7s0.1 6.9-0.2 7.9c-0.3 1.1-0.8 0.9-0.8 1.4 0 0.7 2.2 0.2 2.9-1.4 0.6-1.2 0.3-8 0.3-8l0.6 0c0 0 0 3.1 0 4.5 0 1.5-0.1 3.3 0.8 4.2 0.6 0.6 2.5 1.6 2.5 0.7 0-0.5-1-1-1-2.4v-6.7c0.8 0 0.7 2.2 0.7 2.2l0.1 4.1c0 0-0.2 1.5 1.6 2.1 0.6 0.2 2 0.3 2.1-0.1 0.1-0.4-1.7-0.9-1.7-2.1 0-0.7 0-1.1 0-4.2 0-3.1-0.4-4.2-1.9-5.1 4.5-0.5 7.3-1.6 8.7-4.5 0.1 0 0.6-1.4 0.5-1.4 0.3-1.1 0.5-2.4 0.5-4 0-4.2-2.1-5.7-2.5-6.4 0.6-3.2-0.1-4.6-0.4-5.1 -1.2-0.4-4 1-5.6 2.1 -2.6-0.7-8-0.7-10 0.2 -3.8-2.6-5.7-2.2-5.7-2.2s-1.3 2.3-0.3 5.6c-1.2 1.5-2.2 2.6-2.2 5.5C19.9 31.8 20.1 33.3 20.5 34.6zM33 64C16.4 64 3 50.6 3 34 3 17.4 16.4 4 33 4s30 13.4 30 30C63 50.6 49.6 64 33 64z" fill="#FB504D"/></svg>
