<svg xmlns="http://www.w3.org/2000/svg" height="24" version="1.1" viewBox="0 0 24 24" width="24"><g fill="white" fill-opacity="1" fill-rule="evenodd" stroke="none" stroke-width="1"><g transform="translate(-395.000000, -479.000000)"><g transform="translate(215.000000, 119.000000)"/><path d="M396.5 485C396.2 485 396 485.2 396 485.5L396 486.5C396 486.8 396.2 487 396.5 487L417.5 487C417.8 487 418 486.8 418 486.5L418 485.5C418 485.2 417.8 485 417.5 485L396.5 485ZM396.5 490C396.2 490 396 490.2 396 490.5L396 491.5C396 491.8 396.2 492 396.5 492L417.5 492C417.8 492 418 491.8 418 491.5L418 490.5C418 490.2 417.8 490 417.5 490L396.5 490ZM396.5 495C396.2 495 396 495.2 396 495.5L396 496.5C396 496.8 396.2 497 396.5 497L417.5 497C417.8 497 418 496.8 418 496.5L418 495.5C418 495.2 417.8 495 417.5 495L396.5 495Z" fill="#fff"/></g></g></svg>
