<svg xmlns="http://www.w3.org/2000/svg" height="67" version="1.1" viewBox="0 0 67 67" width="67" xml:space="preserve"><path d="M50.8 48.1V36.4c0-6.3-3.3-9.2-7.8-9.2 -3.6 0-5.2 2-6.1 3.4V27.7h-6.8c0.1 1.9 0 20.4 0 20.4h6.8V36.7c0-0.6 0-1.2 0.2-1.7 0.5-1.2 1.6-2.5 3.5-2.5 2.5 0 3.4 1.9 3.4 4.6v10.9H50.8zM23 24.9c2.4 0 3.8-1.6 3.8-3.5 0-2-1.5-3.5-3.8-3.5s-3.8 1.5-3.8 3.5c0 2 1.5 3.5 3.8 3.5H23zM34 64C17.4 64 4 50.6 4 34 4 17.4 17.4 4 34 4s30 13.4 30 30C64 50.6 50.6 64 34 64zM26.4 48.1V27.7h-6.8v20.4H26.4z" fill="#FB504D"/></svg>
